<mxfile host="app.diagrams.net" agent="Mozilla/5.0 (Windows NT 10.0; Win64; x64) AppleWebKit/537.36 (KHTML, like Gecko) Chrome/126.0.0.0 Safari/537.36" version="24.7.5">
  <diagram name="Page-1" id="ns1GEoXFfhubM-aY3Zb2">
    <mxGraphModel dx="1434" dy="772" grid="1" gridSize="10" guides="1" tooltips="1" connect="1" arrows="1" fold="1" page="1" pageScale="1" pageWidth="1920" pageHeight="1200" math="0" shadow="0">
      <root>
        <mxCell id="0" />
        <mxCell id="1" parent="0" />
        <mxCell id="WJ2MasTIlMM-FvMdF3s8-1" value="&lt;font style=&quot;font-size: 24px;&quot;&gt;&lt;b&gt;SDLC Flowchart&lt;/b&gt;&lt;/font&gt;" style="text;html=1;align=center;verticalAlign=middle;resizable=0;points=[];autosize=1;strokeColor=none;fillColor=none;" vertex="1" parent="1">
          <mxGeometry x="10" y="23" width="210" height="40" as="geometry" />
        </mxCell>
        <mxCell id="WJ2MasTIlMM-FvMdF3s8-2" value="Project: Construction Material Management Software" style="text;html=1;align=center;verticalAlign=middle;resizable=0;points=[];autosize=1;strokeColor=none;fillColor=none;" vertex="1" parent="1">
          <mxGeometry x="796.25" y="33" width="300" height="30" as="geometry" />
        </mxCell>
        <mxCell id="WJ2MasTIlMM-FvMdF3s8-24" value="" style="edgeStyle=orthogonalEdgeStyle;rounded=0;orthogonalLoop=1;jettySize=auto;html=1;" edge="1" parent="1" source="WJ2MasTIlMM-FvMdF3s8-3" target="WJ2MasTIlMM-FvMdF3s8-9">
          <mxGeometry relative="1" as="geometry" />
        </mxCell>
        <mxCell id="WJ2MasTIlMM-FvMdF3s8-27" value="" style="edgeStyle=orthogonalEdgeStyle;rounded=0;orthogonalLoop=1;jettySize=auto;html=1;" edge="1" parent="1" source="WJ2MasTIlMM-FvMdF3s8-3" target="WJ2MasTIlMM-FvMdF3s8-26">
          <mxGeometry relative="1" as="geometry" />
        </mxCell>
        <mxCell id="WJ2MasTIlMM-FvMdF3s8-3" value="Requirement Gathering" style="rounded=0;whiteSpace=wrap;html=1;" vertex="1" parent="1">
          <mxGeometry x="261.25" y="110" width="120" height="60" as="geometry" />
        </mxCell>
        <mxCell id="WJ2MasTIlMM-FvMdF3s8-20" value="" style="edgeStyle=orthogonalEdgeStyle;rounded=0;orthogonalLoop=1;jettySize=auto;html=1;" edge="1" parent="1" source="WJ2MasTIlMM-FvMdF3s8-4" target="WJ2MasTIlMM-FvMdF3s8-5">
          <mxGeometry relative="1" as="geometry" />
        </mxCell>
        <mxCell id="WJ2MasTIlMM-FvMdF3s8-4" value="Planning" style="rounded=1;whiteSpace=wrap;html=1;" vertex="1" parent="1">
          <mxGeometry x="261.25" y="730" width="120" height="60" as="geometry" />
        </mxCell>
        <mxCell id="WJ2MasTIlMM-FvMdF3s8-21" value="" style="edgeStyle=orthogonalEdgeStyle;rounded=0;orthogonalLoop=1;jettySize=auto;html=1;" edge="1" parent="1" source="WJ2MasTIlMM-FvMdF3s8-5" target="WJ2MasTIlMM-FvMdF3s8-6">
          <mxGeometry relative="1" as="geometry" />
        </mxCell>
        <mxCell id="WJ2MasTIlMM-FvMdF3s8-5" value="Define Project Scope" style="rounded=1;whiteSpace=wrap;html=1;" vertex="1" parent="1">
          <mxGeometry x="261.25" y="820" width="120" height="60" as="geometry" />
        </mxCell>
        <mxCell id="WJ2MasTIlMM-FvMdF3s8-22" value="" style="edgeStyle=orthogonalEdgeStyle;rounded=0;orthogonalLoop=1;jettySize=auto;html=1;" edge="1" parent="1" source="WJ2MasTIlMM-FvMdF3s8-6" target="WJ2MasTIlMM-FvMdF3s8-7">
          <mxGeometry relative="1" as="geometry" />
        </mxCell>
        <mxCell id="WJ2MasTIlMM-FvMdF3s8-6" value="Objectives and Goals" style="rounded=1;whiteSpace=wrap;html=1;" vertex="1" parent="1">
          <mxGeometry x="261.25" y="920" width="120" height="60" as="geometry" />
        </mxCell>
        <mxCell id="WJ2MasTIlMM-FvMdF3s8-7" value="Resource Planning" style="rounded=1;whiteSpace=wrap;html=1;" vertex="1" parent="1">
          <mxGeometry x="261.25" y="1010" width="120" height="60" as="geometry" />
        </mxCell>
        <mxCell id="WJ2MasTIlMM-FvMdF3s8-29" style="edgeStyle=orthogonalEdgeStyle;rounded=0;orthogonalLoop=1;jettySize=auto;html=1;exitX=0.5;exitY=1;exitDx=0;exitDy=0;entryX=0.5;entryY=0;entryDx=0;entryDy=0;" edge="1" parent="1" source="WJ2MasTIlMM-FvMdF3s8-8" target="WJ2MasTIlMM-FvMdF3s8-10">
          <mxGeometry relative="1" as="geometry" />
        </mxCell>
        <mxCell id="WJ2MasTIlMM-FvMdF3s8-8" value="Gathering all the&lt;div&gt;necessary information from the client&lt;/div&gt;" style="rounded=1;whiteSpace=wrap;html=1;" vertex="1" parent="1">
          <mxGeometry x="246.25" y="330" width="150" height="60" as="geometry" />
        </mxCell>
        <mxCell id="WJ2MasTIlMM-FvMdF3s8-31" value="" style="edgeStyle=orthogonalEdgeStyle;rounded=0;orthogonalLoop=1;jettySize=auto;html=1;" edge="1" parent="1" source="WJ2MasTIlMM-FvMdF3s8-10" target="WJ2MasTIlMM-FvMdF3s8-4">
          <mxGeometry relative="1" as="geometry" />
        </mxCell>
        <mxCell id="WJ2MasTIlMM-FvMdF3s8-10" value="" style="rounded=0;whiteSpace=wrap;html=1;" vertex="1" parent="1">
          <mxGeometry x="226.25" y="430" width="190" height="270" as="geometry" />
        </mxCell>
        <mxCell id="WJ2MasTIlMM-FvMdF3s8-48" value="" style="edgeStyle=orthogonalEdgeStyle;rounded=0;orthogonalLoop=1;jettySize=auto;html=1;" edge="1" parent="1" source="WJ2MasTIlMM-FvMdF3s8-9" target="WJ2MasTIlMM-FvMdF3s8-25">
          <mxGeometry relative="1" as="geometry" />
        </mxCell>
        <mxCell id="WJ2MasTIlMM-FvMdF3s8-62" value="" style="edgeStyle=orthogonalEdgeStyle;rounded=0;orthogonalLoop=1;jettySize=auto;html=1;" edge="1" parent="1" source="WJ2MasTIlMM-FvMdF3s8-9" target="WJ2MasTIlMM-FvMdF3s8-38">
          <mxGeometry relative="1" as="geometry" />
        </mxCell>
        <mxCell id="WJ2MasTIlMM-FvMdF3s8-9" value="Design" style="rounded=0;whiteSpace=wrap;html=1;" vertex="1" parent="1">
          <mxGeometry x="486.25" y="110" width="120" height="60" as="geometry" />
        </mxCell>
        <mxCell id="WJ2MasTIlMM-FvMdF3s8-30" style="edgeStyle=orthogonalEdgeStyle;rounded=0;orthogonalLoop=1;jettySize=auto;html=1;exitX=0.5;exitY=1;exitDx=0;exitDy=0;entryX=0.5;entryY=0;entryDx=0;entryDy=0;" edge="1" parent="1" source="WJ2MasTIlMM-FvMdF3s8-12" target="WJ2MasTIlMM-FvMdF3s8-13">
          <mxGeometry relative="1" as="geometry" />
        </mxCell>
        <mxCell id="WJ2MasTIlMM-FvMdF3s8-12" value="Functional Req." style="rounded=1;whiteSpace=wrap;html=1;" vertex="1" parent="1">
          <mxGeometry x="261.25" y="450" width="120" height="60" as="geometry" />
        </mxCell>
        <mxCell id="WJ2MasTIlMM-FvMdF3s8-18" value="" style="edgeStyle=orthogonalEdgeStyle;rounded=0;orthogonalLoop=1;jettySize=auto;html=1;" edge="1" parent="1" source="WJ2MasTIlMM-FvMdF3s8-13" target="WJ2MasTIlMM-FvMdF3s8-14">
          <mxGeometry relative="1" as="geometry" />
        </mxCell>
        <mxCell id="WJ2MasTIlMM-FvMdF3s8-13" value="Technical Req." style="rounded=1;whiteSpace=wrap;html=1;" vertex="1" parent="1">
          <mxGeometry x="261.25" y="530" width="120" height="60" as="geometry" />
        </mxCell>
        <mxCell id="WJ2MasTIlMM-FvMdF3s8-14" value="Approving &amp;amp; review&amp;nbsp;&lt;div&gt;requirements&amp;nbsp;&lt;/div&gt;" style="rounded=1;whiteSpace=wrap;html=1;" vertex="1" parent="1">
          <mxGeometry x="261.25" y="620" width="120" height="60" as="geometry" />
        </mxCell>
        <mxCell id="WJ2MasTIlMM-FvMdF3s8-49" value="" style="edgeStyle=orthogonalEdgeStyle;rounded=0;orthogonalLoop=1;jettySize=auto;html=1;" edge="1" parent="1" source="WJ2MasTIlMM-FvMdF3s8-25" target="WJ2MasTIlMM-FvMdF3s8-32">
          <mxGeometry relative="1" as="geometry" />
        </mxCell>
        <mxCell id="WJ2MasTIlMM-FvMdF3s8-25" value="UIUX and FE Developers, Client" style="rounded=1;whiteSpace=wrap;html=1;" vertex="1" parent="1">
          <mxGeometry x="486.25" y="240" width="120" height="60" as="geometry" />
        </mxCell>
        <mxCell id="WJ2MasTIlMM-FvMdF3s8-28" value="" style="edgeStyle=orthogonalEdgeStyle;rounded=0;orthogonalLoop=1;jettySize=auto;html=1;" edge="1" parent="1" source="WJ2MasTIlMM-FvMdF3s8-26" target="WJ2MasTIlMM-FvMdF3s8-8">
          <mxGeometry relative="1" as="geometry" />
        </mxCell>
        <mxCell id="WJ2MasTIlMM-FvMdF3s8-26" value="&amp;nbsp; &amp;nbsp; BA&#39;s, Sr. Dev, Product manager, client&amp;nbsp;" style="shape=parallelogram;perimeter=parallelogramPerimeter;whiteSpace=wrap;html=1;fixedSize=1;" vertex="1" parent="1">
          <mxGeometry x="220" y="240" width="202.5" height="60" as="geometry" />
        </mxCell>
        <mxCell id="WJ2MasTIlMM-FvMdF3s8-50" value="" style="edgeStyle=orthogonalEdgeStyle;rounded=0;orthogonalLoop=1;jettySize=auto;html=1;" edge="1" parent="1" source="WJ2MasTIlMM-FvMdF3s8-32" target="WJ2MasTIlMM-FvMdF3s8-33">
          <mxGeometry relative="1" as="geometry" />
        </mxCell>
        <mxCell id="WJ2MasTIlMM-FvMdF3s8-32" value="Analyze Req." style="rounded=1;whiteSpace=wrap;html=1;" vertex="1" parent="1">
          <mxGeometry x="486.25" y="330" width="120" height="60" as="geometry" />
        </mxCell>
        <mxCell id="WJ2MasTIlMM-FvMdF3s8-51" value="" style="edgeStyle=orthogonalEdgeStyle;rounded=0;orthogonalLoop=1;jettySize=auto;html=1;" edge="1" parent="1" source="WJ2MasTIlMM-FvMdF3s8-33" target="WJ2MasTIlMM-FvMdF3s8-34">
          <mxGeometry relative="1" as="geometry" />
        </mxCell>
        <mxCell id="WJ2MasTIlMM-FvMdF3s8-33" value="Design Low Level UI" style="rounded=1;whiteSpace=wrap;html=1;" vertex="1" parent="1">
          <mxGeometry x="486.25" y="450" width="120" height="60" as="geometry" />
        </mxCell>
        <mxCell id="WJ2MasTIlMM-FvMdF3s8-52" value="" style="edgeStyle=orthogonalEdgeStyle;rounded=0;orthogonalLoop=1;jettySize=auto;html=1;" edge="1" parent="1" source="WJ2MasTIlMM-FvMdF3s8-34" target="WJ2MasTIlMM-FvMdF3s8-35">
          <mxGeometry relative="1" as="geometry" />
        </mxCell>
        <mxCell id="WJ2MasTIlMM-FvMdF3s8-34" value="Design High Level UI" style="rounded=1;whiteSpace=wrap;html=1;" vertex="1" parent="1">
          <mxGeometry x="486.25" y="550" width="120" height="60" as="geometry" />
        </mxCell>
        <mxCell id="WJ2MasTIlMM-FvMdF3s8-53" value="" style="edgeStyle=orthogonalEdgeStyle;rounded=0;orthogonalLoop=1;jettySize=auto;html=1;" edge="1" parent="1" source="WJ2MasTIlMM-FvMdF3s8-35" target="WJ2MasTIlMM-FvMdF3s8-36">
          <mxGeometry relative="1" as="geometry" />
        </mxCell>
        <mxCell id="WJ2MasTIlMM-FvMdF3s8-35" value="Reviewing UI Rq." style="rounded=1;whiteSpace=wrap;html=1;" vertex="1" parent="1">
          <mxGeometry x="486.25" y="650" width="120" height="60" as="geometry" />
        </mxCell>
        <mxCell id="WJ2MasTIlMM-FvMdF3s8-54" value="" style="edgeStyle=orthogonalEdgeStyle;rounded=0;orthogonalLoop=1;jettySize=auto;html=1;" edge="1" parent="1" source="WJ2MasTIlMM-FvMdF3s8-36" target="WJ2MasTIlMM-FvMdF3s8-37">
          <mxGeometry relative="1" as="geometry" />
        </mxCell>
        <mxCell id="WJ2MasTIlMM-FvMdF3s8-36" value="Approval From client&amp;nbsp;" style="rounded=1;whiteSpace=wrap;html=1;" vertex="1" parent="1">
          <mxGeometry x="486.25" y="750" width="120" height="60" as="geometry" />
        </mxCell>
        <mxCell id="WJ2MasTIlMM-FvMdF3s8-37" value="Final UI Ready" style="rounded=1;whiteSpace=wrap;html=1;" vertex="1" parent="1">
          <mxGeometry x="486.25" y="850" width="120" height="60" as="geometry" />
        </mxCell>
        <mxCell id="WJ2MasTIlMM-FvMdF3s8-55" value="" style="edgeStyle=orthogonalEdgeStyle;rounded=0;orthogonalLoop=1;jettySize=auto;html=1;" edge="1" parent="1" source="WJ2MasTIlMM-FvMdF3s8-38" target="WJ2MasTIlMM-FvMdF3s8-39">
          <mxGeometry relative="1" as="geometry" />
        </mxCell>
        <mxCell id="WJ2MasTIlMM-FvMdF3s8-63" value="" style="edgeStyle=orthogonalEdgeStyle;rounded=0;orthogonalLoop=1;jettySize=auto;html=1;" edge="1" parent="1" source="WJ2MasTIlMM-FvMdF3s8-38" target="WJ2MasTIlMM-FvMdF3s8-47">
          <mxGeometry relative="1" as="geometry" />
        </mxCell>
        <mxCell id="WJ2MasTIlMM-FvMdF3s8-38" value="Implementation" style="rounded=0;whiteSpace=wrap;html=1;" vertex="1" parent="1">
          <mxGeometry x="696.25" y="110" width="120" height="60" as="geometry" />
        </mxCell>
        <mxCell id="WJ2MasTIlMM-FvMdF3s8-56" value="" style="edgeStyle=orthogonalEdgeStyle;rounded=0;orthogonalLoop=1;jettySize=auto;html=1;" edge="1" parent="1" source="WJ2MasTIlMM-FvMdF3s8-39" target="WJ2MasTIlMM-FvMdF3s8-41">
          <mxGeometry relative="1" as="geometry" />
        </mxCell>
        <mxCell id="WJ2MasTIlMM-FvMdF3s8-39" value="BE Developers, Database Admins etc." style="shape=parallelogram;perimeter=parallelogramPerimeter;whiteSpace=wrap;html=1;fixedSize=1;" vertex="1" parent="1">
          <mxGeometry x="671.25" y="240" width="170" height="60" as="geometry" />
        </mxCell>
        <mxCell id="WJ2MasTIlMM-FvMdF3s8-57" value="" style="edgeStyle=orthogonalEdgeStyle;rounded=0;orthogonalLoop=1;jettySize=auto;html=1;" edge="1" parent="1" source="WJ2MasTIlMM-FvMdF3s8-41" target="WJ2MasTIlMM-FvMdF3s8-42">
          <mxGeometry relative="1" as="geometry" />
        </mxCell>
        <mxCell id="WJ2MasTIlMM-FvMdF3s8-41" value="Analyze the Software Req." style="rounded=1;whiteSpace=wrap;html=1;" vertex="1" parent="1">
          <mxGeometry x="696.25" y="330" width="120" height="60" as="geometry" />
        </mxCell>
        <mxCell id="WJ2MasTIlMM-FvMdF3s8-58" value="" style="edgeStyle=orthogonalEdgeStyle;rounded=0;orthogonalLoop=1;jettySize=auto;html=1;" edge="1" parent="1" source="WJ2MasTIlMM-FvMdF3s8-42" target="WJ2MasTIlMM-FvMdF3s8-43">
          <mxGeometry relative="1" as="geometry" />
        </mxCell>
        <mxCell id="WJ2MasTIlMM-FvMdF3s8-42" value="Analyze the FE UI" style="rounded=1;whiteSpace=wrap;html=1;" vertex="1" parent="1">
          <mxGeometry x="696.25" y="430" width="120" height="60" as="geometry" />
        </mxCell>
        <mxCell id="WJ2MasTIlMM-FvMdF3s8-59" value="" style="edgeStyle=orthogonalEdgeStyle;rounded=0;orthogonalLoop=1;jettySize=auto;html=1;" edge="1" parent="1" source="WJ2MasTIlMM-FvMdF3s8-43" target="WJ2MasTIlMM-FvMdF3s8-44">
          <mxGeometry relative="1" as="geometry" />
        </mxCell>
        <mxCell id="WJ2MasTIlMM-FvMdF3s8-43" value="Working on BE logic and DB" style="rounded=1;whiteSpace=wrap;html=1;" vertex="1" parent="1">
          <mxGeometry x="696.25" y="540" width="120" height="60" as="geometry" />
        </mxCell>
        <mxCell id="WJ2MasTIlMM-FvMdF3s8-60" value="" style="edgeStyle=orthogonalEdgeStyle;rounded=0;orthogonalLoop=1;jettySize=auto;html=1;" edge="1" parent="1" source="WJ2MasTIlMM-FvMdF3s8-44" target="WJ2MasTIlMM-FvMdF3s8-46">
          <mxGeometry relative="1" as="geometry" />
        </mxCell>
        <mxCell id="WJ2MasTIlMM-FvMdF3s8-44" value="Self Testing all the logic according to Req." style="rounded=1;whiteSpace=wrap;html=1;" vertex="1" parent="1">
          <mxGeometry x="696.25" y="640" width="120" height="60" as="geometry" />
        </mxCell>
        <mxCell id="WJ2MasTIlMM-FvMdF3s8-45" value="Sending project to testing team" style="rounded=1;whiteSpace=wrap;html=1;" vertex="1" parent="1">
          <mxGeometry x="696.25" y="830" width="120" height="60" as="geometry" />
        </mxCell>
        <mxCell id="WJ2MasTIlMM-FvMdF3s8-61" value="" style="edgeStyle=orthogonalEdgeStyle;rounded=0;orthogonalLoop=1;jettySize=auto;html=1;" edge="1" parent="1" source="WJ2MasTIlMM-FvMdF3s8-46" target="WJ2MasTIlMM-FvMdF3s8-45">
          <mxGeometry relative="1" as="geometry" />
        </mxCell>
        <mxCell id="WJ2MasTIlMM-FvMdF3s8-46" value="Re-checking for errors and bugs" style="rounded=1;whiteSpace=wrap;html=1;" vertex="1" parent="1">
          <mxGeometry x="696.25" y="730" width="120" height="60" as="geometry" />
        </mxCell>
        <mxCell id="WJ2MasTIlMM-FvMdF3s8-69" value="" style="edgeStyle=orthogonalEdgeStyle;rounded=0;orthogonalLoop=1;jettySize=auto;html=1;" edge="1" parent="1" source="WJ2MasTIlMM-FvMdF3s8-47" target="WJ2MasTIlMM-FvMdF3s8-64">
          <mxGeometry relative="1" as="geometry" />
        </mxCell>
        <mxCell id="WJ2MasTIlMM-FvMdF3s8-82" value="" style="edgeStyle=orthogonalEdgeStyle;rounded=0;orthogonalLoop=1;jettySize=auto;html=1;" edge="1" parent="1" source="WJ2MasTIlMM-FvMdF3s8-47" target="WJ2MasTIlMM-FvMdF3s8-73">
          <mxGeometry relative="1" as="geometry" />
        </mxCell>
        <mxCell id="WJ2MasTIlMM-FvMdF3s8-47" value="Testing" style="rounded=0;whiteSpace=wrap;html=1;" vertex="1" parent="1">
          <mxGeometry x="886.25" y="110" width="120" height="60" as="geometry" />
        </mxCell>
        <mxCell id="WJ2MasTIlMM-FvMdF3s8-70" value="" style="edgeStyle=orthogonalEdgeStyle;rounded=0;orthogonalLoop=1;jettySize=auto;html=1;" edge="1" parent="1" source="WJ2MasTIlMM-FvMdF3s8-64" target="WJ2MasTIlMM-FvMdF3s8-65">
          <mxGeometry relative="1" as="geometry" />
        </mxCell>
        <mxCell id="WJ2MasTIlMM-FvMdF3s8-64" value="Quality Analysts" style="shape=parallelogram;perimeter=parallelogramPerimeter;whiteSpace=wrap;html=1;fixedSize=1;" vertex="1" parent="1">
          <mxGeometry x="866.25" y="240" width="160" height="60" as="geometry" />
        </mxCell>
        <mxCell id="WJ2MasTIlMM-FvMdF3s8-71" value="" style="edgeStyle=orthogonalEdgeStyle;rounded=0;orthogonalLoop=1;jettySize=auto;html=1;" edge="1" parent="1" source="WJ2MasTIlMM-FvMdF3s8-65" target="WJ2MasTIlMM-FvMdF3s8-66">
          <mxGeometry relative="1" as="geometry" />
        </mxCell>
        <mxCell id="WJ2MasTIlMM-FvMdF3s8-65" value="Analyze BA Req." style="rounded=1;whiteSpace=wrap;html=1;" vertex="1" parent="1">
          <mxGeometry x="886.25" y="330" width="120" height="60" as="geometry" />
        </mxCell>
        <mxCell id="WJ2MasTIlMM-FvMdF3s8-72" value="" style="edgeStyle=orthogonalEdgeStyle;rounded=0;orthogonalLoop=1;jettySize=auto;html=1;" edge="1" parent="1" source="WJ2MasTIlMM-FvMdF3s8-66" target="WJ2MasTIlMM-FvMdF3s8-68">
          <mxGeometry relative="1" as="geometry" />
        </mxCell>
        <mxCell id="WJ2MasTIlMM-FvMdF3s8-66" value="Perform All Testing" style="rounded=1;whiteSpace=wrap;html=1;" vertex="1" parent="1">
          <mxGeometry x="886.25" y="420" width="120" height="60" as="geometry" />
        </mxCell>
        <mxCell id="WJ2MasTIlMM-FvMdF3s8-68" value="If bug found return to developer if not process ahead" style="rounded=1;whiteSpace=wrap;html=1;" vertex="1" parent="1">
          <mxGeometry x="886.25" y="540" width="120" height="60" as="geometry" />
        </mxCell>
        <mxCell id="WJ2MasTIlMM-FvMdF3s8-78" value="" style="edgeStyle=orthogonalEdgeStyle;rounded=0;orthogonalLoop=1;jettySize=auto;html=1;" edge="1" parent="1" source="WJ2MasTIlMM-FvMdF3s8-73" target="WJ2MasTIlMM-FvMdF3s8-74">
          <mxGeometry relative="1" as="geometry" />
        </mxCell>
        <mxCell id="WJ2MasTIlMM-FvMdF3s8-93" value="" style="edgeStyle=orthogonalEdgeStyle;rounded=0;orthogonalLoop=1;jettySize=auto;html=1;" edge="1" parent="1" source="WJ2MasTIlMM-FvMdF3s8-73" target="WJ2MasTIlMM-FvMdF3s8-83">
          <mxGeometry relative="1" as="geometry" />
        </mxCell>
        <mxCell id="WJ2MasTIlMM-FvMdF3s8-73" value="Deployment" style="rounded=0;whiteSpace=wrap;html=1;" vertex="1" parent="1">
          <mxGeometry x="1076.25" y="110" width="120" height="60" as="geometry" />
        </mxCell>
        <mxCell id="WJ2MasTIlMM-FvMdF3s8-79" value="" style="edgeStyle=orthogonalEdgeStyle;rounded=0;orthogonalLoop=1;jettySize=auto;html=1;" edge="1" parent="1" source="WJ2MasTIlMM-FvMdF3s8-74" target="WJ2MasTIlMM-FvMdF3s8-75">
          <mxGeometry relative="1" as="geometry" />
        </mxCell>
        <mxCell id="WJ2MasTIlMM-FvMdF3s8-74" value="DevOps Eng., Client" style="shape=parallelogram;perimeter=parallelogramPerimeter;whiteSpace=wrap;html=1;fixedSize=1;" vertex="1" parent="1">
          <mxGeometry x="1066.25" y="240" width="140" height="60" as="geometry" />
        </mxCell>
        <mxCell id="WJ2MasTIlMM-FvMdF3s8-80" value="" style="edgeStyle=orthogonalEdgeStyle;rounded=0;orthogonalLoop=1;jettySize=auto;html=1;" edge="1" parent="1" source="WJ2MasTIlMM-FvMdF3s8-75" target="WJ2MasTIlMM-FvMdF3s8-76">
          <mxGeometry relative="1" as="geometry" />
        </mxCell>
        <mxCell id="WJ2MasTIlMM-FvMdF3s8-75" value="Release Beta Version&lt;div&gt;of software&lt;/div&gt;" style="rounded=1;whiteSpace=wrap;html=1;" vertex="1" parent="1">
          <mxGeometry x="1076.25" y="330" width="120" height="60" as="geometry" />
        </mxCell>
        <mxCell id="WJ2MasTIlMM-FvMdF3s8-81" value="" style="edgeStyle=orthogonalEdgeStyle;rounded=0;orthogonalLoop=1;jettySize=auto;html=1;" edge="1" parent="1" source="WJ2MasTIlMM-FvMdF3s8-76" target="WJ2MasTIlMM-FvMdF3s8-77">
          <mxGeometry relative="1" as="geometry" />
        </mxCell>
        <mxCell id="WJ2MasTIlMM-FvMdF3s8-76" value="Approval from Client" style="rounded=1;whiteSpace=wrap;html=1;" vertex="1" parent="1">
          <mxGeometry x="1076.25" y="420" width="120" height="60" as="geometry" />
        </mxCell>
        <mxCell id="WJ2MasTIlMM-FvMdF3s8-77" value="Release the Main&amp;nbsp;&lt;div&gt;Version of software&lt;/div&gt;" style="rounded=1;whiteSpace=wrap;html=1;" vertex="1" parent="1">
          <mxGeometry x="1076.25" y="530" width="120" height="60" as="geometry" />
        </mxCell>
        <mxCell id="WJ2MasTIlMM-FvMdF3s8-89" value="" style="edgeStyle=orthogonalEdgeStyle;rounded=0;orthogonalLoop=1;jettySize=auto;html=1;" edge="1" parent="1" source="WJ2MasTIlMM-FvMdF3s8-83" target="WJ2MasTIlMM-FvMdF3s8-84">
          <mxGeometry relative="1" as="geometry" />
        </mxCell>
        <mxCell id="WJ2MasTIlMM-FvMdF3s8-83" value="Maintenance" style="rounded=0;whiteSpace=wrap;html=1;" vertex="1" parent="1">
          <mxGeometry x="1266.25" y="110" width="120" height="60" as="geometry" />
        </mxCell>
        <mxCell id="WJ2MasTIlMM-FvMdF3s8-90" value="" style="edgeStyle=orthogonalEdgeStyle;rounded=0;orthogonalLoop=1;jettySize=auto;html=1;" edge="1" parent="1" source="WJ2MasTIlMM-FvMdF3s8-84" target="WJ2MasTIlMM-FvMdF3s8-86">
          <mxGeometry relative="1" as="geometry" />
        </mxCell>
        <mxCell id="WJ2MasTIlMM-FvMdF3s8-84" value="Support Enginners" style="shape=parallelogram;perimeter=parallelogramPerimeter;whiteSpace=wrap;html=1;fixedSize=1;" vertex="1" parent="1">
          <mxGeometry x="1256.25" y="240" width="140" height="60" as="geometry" />
        </mxCell>
        <mxCell id="WJ2MasTIlMM-FvMdF3s8-91" value="" style="edgeStyle=orthogonalEdgeStyle;rounded=0;orthogonalLoop=1;jettySize=auto;html=1;" edge="1" parent="1" source="WJ2MasTIlMM-FvMdF3s8-86" target="WJ2MasTIlMM-FvMdF3s8-87">
          <mxGeometry relative="1" as="geometry" />
        </mxCell>
        <mxCell id="WJ2MasTIlMM-FvMdF3s8-86" value="Minor Bugs, error solving" style="rounded=1;whiteSpace=wrap;html=1;" vertex="1" parent="1">
          <mxGeometry x="1266.25" y="330" width="120" height="60" as="geometry" />
        </mxCell>
        <mxCell id="WJ2MasTIlMM-FvMdF3s8-92" value="" style="edgeStyle=orthogonalEdgeStyle;rounded=0;orthogonalLoop=1;jettySize=auto;html=1;" edge="1" parent="1" source="WJ2MasTIlMM-FvMdF3s8-87" target="WJ2MasTIlMM-FvMdF3s8-88">
          <mxGeometry relative="1" as="geometry" />
        </mxCell>
        <mxCell id="WJ2MasTIlMM-FvMdF3s8-87" value="Software User case explanation" style="rounded=1;whiteSpace=wrap;html=1;" vertex="1" parent="1">
          <mxGeometry x="1266.25" y="420" width="120" height="60" as="geometry" />
        </mxCell>
        <mxCell id="WJ2MasTIlMM-FvMdF3s8-88" value="Updates and Feedback" style="rounded=1;whiteSpace=wrap;html=1;" vertex="1" parent="1">
          <mxGeometry x="1266.25" y="530" width="120" height="60" as="geometry" />
        </mxCell>
      </root>
    </mxGraphModel>
  </diagram>
</mxfile>
